# xmcd CD database file
#
# Track frame offsets:
#	150
#	24605
#	46502
#	66380
#	87025
#	110255
#	135480
#	159185
#	177850
#
# Disc length: 2656 seconds
#
# Revision: 13
# Processed by: cddbd v1.5.2PL0 Copyright (c) Steve Scherf et al.
# Submitted via: CDex 1.51
#
DISCID=630a5e09
DTITLE=Jimmy Scott - Dream  { to '' Nawelle '' ~ Dédicace du Mercredi 22 Juin 1994, 19 h }
DYEAR=1994
DGENRE=Jazz
TTITLE0=Don't Take Your Love From Me
TTITLE1=It Shouldn't Happen To A Dream
TTITLE2=I Cried For You
TTITLE3=So Long
TTITLE4=You Never Miss The Water
TTITLE5=It's The Talk Of The Town
TTITLE6=I'm Through With Love
TTITLE7=Laughing On The Outside
TTITLE8=Dream
EXTD=Sire - Warner Bros. - Blue Horizon 9362-45629-2\n(C) 1994 YEAR: 1994
EXTT0=
EXTT1=
EXTT2=
EXTT3=
EXTT4=
EXTT5=
EXTT6=
EXTT7=
EXTT8=
PLAYORDER=
